# xmcd CD database file
#
# Track frame offsets:
#	182
#	17960
#	36137
#	59707
#	75325
#	98380
#	123070
#	143182
#	163415
#	186225
#	201187
#	220080
#	232212
#	262280
#
# Disc length: 3764 seconds
#
# Revision: 2
# Processed by: cddbd v1.5.2PL0 Copyright (c) Steve Scherf et al.
# Submitted via: CDex 1.70beta2
#
DISCID=cc0eb20e
DTITLE=Abbey Lincoln - Jazz Series - la chanteuse de jazz idéale
DYEAR=1996
DGENRE=Jazz
TTITLE0=My Man
TTITLE1=It's Magic
TTITLE2=Come Sunday
TTITLE3=That's Him
TTITLE4=Little Niles
TTITLE5=Let Up
TTITLE6=Porgy
TTITLE7=Ain't Nobody's Business
TTITLE8=Striong Man
TTITLE9=Music, Maestro, Please
TTITLE10=Lost in the Stars
TTITLE11=Love
TTITLE12=Don't Explain
TTITLE13=When a Woman Loves a Man
EXTD=YEAR: 1996
EXTT0=
EXTT1=
EXTT2=
EXTT3=
EXTT4=
EXTT5=
EXTT6=
EXTT7=
EXTT8=
EXTT9=
EXTT10=
EXTT11=
EXTT12=
EXTT13=
PLAYORDER=
